<?xml version="1.0" standalone="no"?>
<!DOCTYPE svg PUBLIC "-//W3C//DTD SVG 20010904//EN"
 "http://www.w3.org/TR/2001/REC-SVG-20010904/DTD/svg10.dtd">
<svg version="1.0" xmlns="http://www.w3.org/2000/svg"
 width="1563.000000pt" height="1563.000000pt" viewBox="0 0 1563.000000 1563.000000"
 preserveAspectRatio="xMidYMid meet">
<metadata>
Created by potrace 1.14, written by Peter Selinger 2001-2017
</metadata>
<g transform="translate(0.000000,1563.000000) scale(0.100000,-0.100000)"
fill="#000000" stroke="none">
<path d="M11662 15000 c-127 -11 -215 -24 -351 -52 -90 -18 -110 -26 -143 -56
-71 -64 -71 -163 -2 -229 50 -47 85 -50 253 -20 275 50 468 55 726 21 337 -45
675 -182 965 -393 117 -85 290 -247 386 -362 198 -238 363 -572 434 -879 29
-129 47 -168 91 -197 54 -36 99 -40 154 -13 88 43 107 104 75 247 -60 269
-208 618 -356 838 -397 591 -1037 992 -1724 1079 -152 19 -380 26 -508 16z"/>
<path d="M11519 14395 c-118 -17 -220 -43 -256 -65 -43 -26 -77 -100 -68 -148
10 -57 41 -98 92 -123 43 -21 51 -22 112 -10 210 39 257 43 436 38 197 -5 316
-25 465 -76 136 -46 189 -69 285 -124 401 -227 680 -595 790 -1042 31 -125 44
-152 88 -182 50 -35 104 -38 156 -11 96 49 109 111 61 293 -198 762 -800 1310
-1588 1445 -134 23 -431 26 -573 5z"/>
<path d="M11545 13805 c-140 -23 -189 -40 -223 -80 -74 -84 -42 -210 64 -251
44 -17 50 -17 143 2 144 29 354 25 482 -9 181 -48 342 -133 478 -253 154 -137
276 -346 332 -568 16 -63 31 -99 52 -122 74 -85 213 -62 259 43 19 43 20 53 9
113 -17 93 -73 254 -121 352 -66 132 -146 243 -252 353 -199 207 -448 344
-736 405 -129 28 -364 35 -487 15z"/>
<path d="M11650 13253 c-66 -11 -103 -26 -135 -54 -67 -59 -70 -151 -8 -220
44 -49 89 -62 168 -49 136 22 235 8 343 -50 114 -60 195 -162 238 -299 28 -92
59 -135 111 -157 45 -19 80 -17 129 7 86 41 105 119 63 254 -107 345 -423 578
-778 574 -58 -1 -117 -4 -131 -6z"/>
<path d="M11727 12696 c-204 -57 -232 -341 -43 -438 49 -25 129 -33 182 -19
57 15 127 79 149 136 26 69 18 159 -20 220 -54 87 -167 130 -268 101z"/>
<path d="M4520 12030 c-133 -15 -255 -76 -360 -180 -75 -76 -120 -147 -158
-252 l-27 -73 0 -2850 0 -2850 22 -70 c57 -181 191 -322 385 -404 l63 -26
3135 0 3135 0 73 39 c120 64 213 182 241 307 6 24 11 81 11 127 l0 82 93 0
c108 0 201 20 271 58 70 37 155 126 189 196 61 124 58 -43 55 2774 -3 2896 5
2609 -80 2782 -72 148 -215 268 -388 327 -53 17 -174 18 -3325 19 -1798 1
-3299 -2 -3335 -6z m170 -115 c0 -3 -20 -30 -44 -60 -61 -74 -90 -126 -123
-220 l-28 -80 -3 -730 -3 -731 21 -27 21 -27 1219 0 1219 0 20 26 c21 26 21
34 21 743 0 573 3 726 14 767 35 132 133 254 246 308 l65 31 1880 0 1880 0 68
-23 c169 -59 290 -189 344 -368 17 -56 18 -199 21 -2604 2 -1738 -1 -2567 -8
-2613 -14 -91 -47 -153 -114 -215 -72 -65 -126 -83 -259 -85 l-102 -2 0 2671
0 2670 28 42 c28 44 90 82 130 82 30 0 77 36 77 59 0 9 -7 27 -16 39 -12 18
-25 22 -65 22 -99 0 -204 -74 -253 -179 l-21 -46 -5 -2835 -5 -2835 -26 -56
c-54 -114 -142 -180 -265 -199 -48 -7 -990 -10 -3094 -8 l-3025 3 -67 26
c-182 71 -305 211 -338 384 -8 44 -10 811 -8 2860 l3 2800 23 60 c71 190 234
322 422 345 81 9 150 12 150 5z"/>
<path d="M7360 11512 c-28 -22 -30 -70 -4 -89 15 -11 294 -13 1588 -11 l1570
3 15 27 c14 25 14 29 -5 55 l-21 28 -1560 3 c-1494 2 -1562 1 -1583 -16z"/>
<path d="M7751 11004 c-12 -15 -21 -30 -21 -34 0 -4 9 -19 21 -34 l20 -26
1143 0 c1095 0 1144 1 1159 18 22 24 21 65 -1 85 -17 16 -112 17 -1160 17
l-1141 0 -20 -26z"/>
<path d="M7360 10552 c-25 -20 -30 -63 -10 -87 11 -13 195 -15 1588 -13 l1576
3 15 27 c14 25 14 29 -5 55 l-21 28 -1560 3 c-1494 2 -1562 1 -1583 -16z"/>
<path d="M4506 9678 c-14 -20 -16 -87 -16 -534 0 -502 0 -512 21 -538 l20 -26
3049 0 3049 0 21 27 c20 26 20 31 18 543 -2 420 -6 520 -17 533 -12 16 -240
17 -3072 17 l-3058 0 -15 -22z m6034 -538 l0 -440 -2960 0 -2960 0 0 440 0
440 2960 0 2960 0 0 -440z"/>
<path d="M4524 8302 c-32 -21 -34 -51 -34 -599 0 -480 2 -551 16 -571 l15 -22
673 0 c639 0 674 1 689 18 15 17 17 72 17 580 0 549 0 562 -20 582 -20 20 -33
20 -682 20 -365 0 -668 -4 -674 -8z"/>
<path d="M8576 8208 c-14 -20 -16 -143 -16 -1130 l0 -1107 22 -21 c22 -20 29
-20 1034 -20 l1013 0 20 26 c21 27 21 29 21 1123 0 864 -3 1101 -13 1121 l-13
25 -1026 3 -1027 2 -15 -22z m1964 -1128 l0 -1030 -927 2 -928 3 -3 1028 -2
1027 930 0 930 0 0 -1030z"/>
<path d="M6212 8144 c-27 -19 -29 -64 -4 -87 17 -16 103 -17 1030 -17 l1011 0
15 22 c21 30 20 54 -4 78 -20 20 -33 20 -1023 20 -891 0 -1005 -2 -1025 -16z"/>
<path d="M6207 7732 c-24 -26 -21 -68 5 -86 20 -14 134 -16 1025 -16 990 0
1003 0 1023 20 24 24 25 48 4 78 l-15 22 -1013 0 c-969 0 -1014 -1 -1029 -18z"/>
<path d="M6206 7324 c-24 -23 -20 -70 6 -88 20 -14 134 -16 1023 -16 l1002 0
21 23 c26 28 27 45 6 75 l-15 22 -1014 0 c-908 0 -1015 -2 -1029 -16z"/>
<path d="M4514 6915 c-19 -19 -23 -31 -18 -48 15 -49 -15 -47 699 -47 638 0
673 1 688 18 23 25 21 58 -3 82 -20 20 -33 20 -680 20 l-661 0 -25 -25z"/>
<path d="M6210 6920 c-25 -25 -26 -62 -2 -83 17 -16 100 -17 1032 -15 l1014 3
15 27 c14 25 14 29 -5 55 l-21 28 -1007 3 c-995 2 -1006 2 -1026 -18z"/>
<path d="M4524 6522 c-37 -24 -36 -91 1 -106 9 -3 315 -6 680 -6 l664 0 15 22
c21 30 20 54 -4 78 -20 20 -33 20 -682 20 -365 0 -668 -4 -674 -8z"/>
<path d="M6212 6514 c-27 -19 -29 -64 -4 -87 17 -16 103 -17 1025 -17 l1007 0
21 21 c24 24 20 65 -8 87 -13 9 -232 12 -1018 12 -889 0 -1003 -2 -1023 -16z"/>
<path d="M6207 6102 c-24 -26 -21 -68 5 -86 20 -14 134 -16 1023 -16 l1002 0
21 23 c26 28 27 45 6 75 l-15 22 -1013 0 c-969 0 -1014 -1 -1029 -18z"/>
<path d="M4476 4579 c-27 -4 -52 -11 -56 -16 -4 -4 -58 -141 -121 -303 -62
-162 -117 -301 -122 -307 -5 -7 -27 -18 -48 -25 -40 -11 -45 -21 -33 -65 6
-22 10 -23 134 -23 l128 0 6 31 c3 17 6 35 6 39 0 4 -20 13 -45 20 -25 7 -45
18 -45 25 0 7 10 35 21 64 l22 51 122 0 122 0 22 -56 c11 -31 21 -59 21 -63 0
-4 -18 -14 -41 -21 -33 -11 -39 -17 -35 -34 3 -12 6 -29 6 -38 0 -16 14 -18
154 -18 l154 0 4 36 c4 38 2 40 -72 66 -9 3 -60 129 -129 319 -63 173 -117
317 -120 320 -3 3 -28 2 -55 -2z m28 -342 c14 -37 26 -72 26 -77 0 -12 -170
-14 -170 -2 0 4 23 69 52 144 l53 138 6 -68 c4 -37 18 -97 33 -135z"/>
<path d="M7110 4583 c-135 -23 -242 -118 -285 -251 -27 -84 -18 -228 20 -310
67 -149 225 -225 399 -192 186 35 284 179 274 399 -6 113 -31 181 -94 250 -72
81 -201 123 -314 104z m135 -102 c49 -23 68 -43 97 -106 19 -42 22 -68 23
-160 0 -165 -34 -247 -119 -286 -113 -51 -231 9 -268 135 -17 56 -16 241 1
291 41 121 158 176 266 126z"/>
<path d="M11062 4580 c-105 -22 -200 -101 -250 -208 -24 -51 -27 -68 -27 -167
0 -91 4 -120 23 -166 63 -158 233 -245 408 -209 141 29 226 109 263 248 19 70
15 198 -10 276 -18 59 -30 79 -82 131 -43 43 -77 67 -111 78 -62 21 -158 29
-214 17z m153 -99 c51 -23 91 -69 107 -124 7 -23 13 -93 13 -157 0 -98 -4
-122 -23 -165 -29 -63 -48 -84 -97 -106 -82 -38 -183 -12 -229 58 -36 56 -49
115 -48 228 0 111 23 194 65 233 55 52 142 65 212 33z"/>
<path d="M4910 4553 c0 -10 -3 -27 -6 -38 -4 -17 3 -23 38 -36 l43 -16 3 -257
2 -257 -46 -19 c-34 -15 -44 -24 -40 -36 3 -9 6 -24 6 -35 0 -18 11 -19 280
-19 l280 0 0 109 0 109 -36 7 c-20 3 -38 4 -41 2 -2 -3 -17 -38 -32 -79 l-27
-73 -99 0 -100 0 0 274 0 273 40 16 c51 20 48 16 41 57 l-7 35 -149 0 c-136 0
-150 -2 -150 -17z"/>
<path d="M5836 4534 c-4 -20 -6 -37 -4 -38 2 -2 21 -10 43 -18 32 -13 40 -20
38 -39 -9 -89 -55 -476 -57 -485 -2 -5 -22 -16 -45 -24 -42 -13 -47 -23 -35
-67 6 -22 11 -23 119 -23 121 0 125 2 125 54 0 18 -9 26 -40 36 -24 8 -40 19
-40 29 0 9 9 86 20 171 11 85 20 162 20 170 1 13 2 13 9 0 5 -8 46 -116 91
-240 45 -124 84 -228 86 -231 2 -4 21 -3 42 3 l38 9 89 245 c48 134 90 242 93
239 4 -3 41 -333 42 -371 0 -6 -18 -17 -40 -24 -39 -13 -41 -15 -38 -49 l3
-36 144 -3 c155 -3 161 -1 161 48 0 21 -8 29 -42 41 l-43 16 -22 224 c-30 308
-31 287 17 306 40 16 45 27 34 71 -6 21 -11 22 -113 22 l-106 0 -100 -274
c-93 -256 -100 -271 -103 -227 -2 28 -36 137 -86 271 l-84 225 -105 3 -105 3
-6 -37z"/>
<path d="M7686 4548 c-11 -44 -6 -55 34 -71 28 -11 40 -21 40 -36 0 -24 -49
-448 -55 -477 -3 -14 -18 -25 -45 -33 -32 -9 -40 -16 -40 -36 0 -53 4 -55 125
-55 l113 0 6 31 c9 46 9 45 -34 59 -33 11 -40 18 -40 39 0 33 38 333 43 338 2
2 44 -107 92 -242 88 -241 89 -244 114 -238 15 3 33 9 42 14 9 4 53 112 104
253 49 135 90 244 91 243 2 -1 10 -72 18 -157 9 -85 18 -172 21 -193 5 -37 4
-39 -35 -54 -37 -15 -40 -19 -40 -55 l0 -38 149 0 149 0 6 31 c9 46 9 45 -35
58 -22 7 -42 17 -44 24 -3 10 -38 363 -48 480 -2 25 3 31 38 45 22 8 41 16 43
18 2 1 0 18 -3 38 l-7 36 -107 0 -108 0 -99 -271 c-98 -267 -99 -270 -104
-222 -5 37 -85 270 -165 476 -6 15 -21 17 -110 17 -98 0 -103 -1 -109 -22z"/>
<path d="M8636 4554 c-15 -40 -6 -61 34 -77 l40 -15 0 -260 0 -259 -40 -13
c-41 -13 -46 -23 -34 -67 l6 -23 274 0 274 0 0 109 0 109 -31 7 c-17 4 -33 4
-37 0 -4 -4 -19 -39 -33 -78 l-26 -72 -102 -3 -101 -3 0 131 0 130 53 0 c54 0
54 0 70 -41 14 -36 20 -41 39 -35 13 3 29 6 36 6 9 0 12 30 12 114 0 109 -1
114 -22 120 -45 12 -55 7 -67 -34 l-12 -40 -54 0 -55 0 0 120 0 120 99 0 99 0
22 -66 c16 -49 26 -64 37 -60 8 3 23 6 34 6 17 0 19 8 19 95 l0 95 -264 0
c-231 0 -265 -2 -270 -16z"/>
<path d="M9267 4563 c-4 -3 -7 -21 -7 -38 0 -28 5 -34 40 -48 l40 -15 0 -260
0 -259 -40 -12 c-32 -9 -40 -17 -40 -36 0 -53 4 -55 126 -55 102 0 114 2 114
18 0 9 3 26 6 37 4 17 -3 23 -38 35 l-43 15 -2 225 c-2 197 0 223 12 205 8
-11 94 -139 192 -285 186 -277 178 -268 240 -255 l23 5 2 312 3 311 43 16 c35
13 42 19 38 36 -3 11 -6 28 -6 38 0 16 -10 17 -117 15 l-118 -3 -3 -36 c-3
-33 0 -37 37 -51 l41 -16 -1 -209 c-1 -206 -1 -208 -17 -162 -9 25 -82 143
-162 262 l-145 216 -106 1 c-58 0 -109 -3 -112 -7z"/>
<path d="M10052 4463 l3 -108 36 -3 35 -3 26 73 25 73 54 0 54 0 3 -273 2
-273 -46 -19 c-34 -15 -44 -24 -40 -36 3 -9 6 -24 6 -35 0 -18 9 -19 149 -19
l149 0 7 36 c3 20 5 37 3 38 -2 1 -21 9 -43 17 l-40 15 0 274 0 275 55 0 54 0
26 -70 c25 -68 26 -70 60 -70 l35 0 3 108 3 107 -311 0 -311 0 3 -107z"/>
<path d="M4760 3243 c0 -24 5 -43 10 -43 6 0 10 7 10 15 0 22 34 35 95 35 l55
0 -2 -202 -3 -203 -35 -17 -35 -17 103 -1 c56 0 102 2 102 5 0 2 -15 8 -32 13
-25 6 -34 15 -39 38 -9 38 -11 348 -3 368 9 22 116 22 138 0 9 -8 16 -20 16
-25 0 -5 5 -9 10 -9 11 0 13 60 2 75 -4 6 -83 10 -200 10 l-192 0 0 -42z"/>
<path d="M5300 3278 c0 -4 8 -8 19 -8 10 0 23 -6 29 -12 6 -8 12 -84 14 -178
3 -144 6 -169 23 -200 28 -46 73 -71 143 -77 46 -4 65 0 101 19 81 42 85 55
91 254 5 179 9 193 48 194 6 0 12 4 12 8 0 5 -36 8 -80 8 -44 -1 -80 -4 -80
-8 0 -5 6 -8 14 -8 8 0 22 -7 30 -16 13 -13 16 -42 16 -160 0 -158 -10 -200
-53 -229 -32 -21 -115 -22 -154 -1 -48 24 -58 63 -58 227 0 154 7 179 46 179
11 0 19 4 19 8 0 5 -40 8 -90 8 -49 0 -90 -4 -90 -8z"/>
<path d="M6230 3279 c0 -4 11 -10 25 -13 14 -4 27 -16 30 -29 3 -12 4 -105 3
-207 -3 -180 -3 -185 -26 -196 -42 -21 -35 -24 57 -24 59 0 90 4 86 10 -3 6
-15 10 -25 10 -30 0 -40 32 -40 129 l0 91 51 0 c56 0 89 -13 89 -35 0 -8 5
-15 10 -15 6 0 10 27 9 63 0 59 -1 61 -16 40 -13 -20 -24 -23 -80 -23 l-64 0
3 83 3 82 70 3 c86 4 111 -2 118 -28 9 -36 27 -21 27 23 l0 42 -165 0 c-91 0
-165 -3 -165 -6z"/>
<path d="M6710 3278 c0 -4 6 -8 13 -8 38 -1 42 -15 47 -194 5 -157 7 -177 26
-203 36 -48 81 -68 154 -68 83 0 126 24 158 85 20 40 22 59 22 193 0 154 7
187 40 187 11 0 20 4 20 8 0 4 -38 8 -85 8 -47 0 -85 -3 -85 -7 0 -4 10 -9 22
-11 41 -6 49 -41 46 -198 -3 -160 -12 -187 -69 -210 -43 -18 -119 -14 -149 8
-38 29 -49 74 -49 217 -1 152 3 173 35 181 47 12 22 20 -61 20 -47 0 -85 -4
-85 -8z"/>
<path d="M7350 3278 c0 -5 8 -8 18 -8 39 0 42 -17 42 -227 l0 -203 -32 -14
c-30 -13 -19 -14 138 -15 l172 -1 6 31 c9 44 8 69 -3 69 -5 0 -12 -11 -15 -25
-8 -30 -31 -37 -129 -39 l-72 -1 -3 103 -3 102 43 0 c60 0 86 -9 93 -31 12
-38 25 -17 25 41 0 63 -7 73 -28 40 -10 -16 -23 -20 -72 -20 l-60 0 0 85 0 86
88 -3 c79 -3 88 -5 97 -25 15 -35 25 -27 25 20 l0 42 -165 0 c-91 0 -165 -3
-165 -7z"/>
<path d="M7880 3279 c0 -5 6 -9 14 -9 8 0 22 -10 30 -22 13 -18 16 -54 15
-198 0 -96 -4 -183 -8 -194 -4 -10 -20 -24 -37 -31 -26 -12 -20 -13 66 -13 90
0 93 0 63 14 -19 8 -35 24 -38 36 -3 13 -4 93 -3 178 l3 155 129 -192 c71
-106 135 -194 143 -194 7 -1 18 -2 25 -3 9 -1 11 49 9 199 -3 211 4 253 39
262 41 11 17 18 -60 18 -77 1 -102 -7 -60 -18 33 -9 41 -51 38 -209 l-3 -150
-46 64 c-26 35 -81 118 -122 186 l-75 123 -61 4 c-34 1 -61 -1 -61 -6z"/>
<path d="M8506 3265 c-9 -32 -7 -65 4 -65 6 0 10 4 10 9 0 27 34 41 96 41 l64
0 0 -192 c0 -106 -5 -200 -10 -208 -5 -8 -24 -20 -42 -27 -29 -10 -21 -12 72
-12 l105 0 -35 17 -35 17 -3 203 -2 202 55 0 c61 0 95 -13 95 -35 0 -8 5 -15
10 -15 6 0 10 19 10 43 l0 42 -194 0 c-187 0 -195 -1 -200 -20z"/>
<path d="M9060 3279 c0 -4 11 -10 25 -13 14 -4 27 -16 30 -29 3 -12 4 -105 3
-207 l-3 -185 -30 -15 c-28 -14 -20 -15 134 -18 91 -1 168 1 171 5 12 13 19
82 10 88 -5 3 -15 -7 -22 -22 -12 -26 -19 -29 -95 -37 -111 -12 -113 -10 -113
110 l0 94 51 0 c56 0 89 -13 89 -35 0 -8 5 -15 10 -15 6 0 10 27 9 63 0 59 -1
61 -16 40 -13 -20 -24 -23 -80 -23 l-64 0 3 83 3 82 70 3 c86 4 111 -2 118
-28 9 -36 27 -21 27 23 l0 42 -165 0 c-91 0 -165 -3 -165 -6z"/>
<path d="M9860 3278 c0 -5 8 -8 18 -8 39 0 42 -17 42 -227 l0 -203 -32 -14
c-31 -13 -24 -14 102 -15 167 -1 202 8 261 68 120 119 79 329 -76 392 -33 13
-315 19 -315 7z m287 -43 c76 -32 112 -93 113 -189 0 -76 -29 -139 -79 -171
-40 -26 -123 -40 -171 -30 l-30 7 0 199 0 199 65 0 c36 0 82 -7 102 -15z"/>
<path d="M10500 3278 c0 -5 8 -8 18 -8 39 0 42 -17 42 -227 l0 -203 -32 -14
c-30 -13 -19 -14 138 -15 l172 -1 6 31 c9 44 8 69 -3 69 -5 0 -12 -11 -15 -25
-8 -30 -31 -37 -129 -39 l-72 -1 -3 103 -3 102 43 0 c60 0 86 -9 93 -31 12
-38 25 -17 25 41 0 63 -7 73 -28 40 -10 -16 -23 -20 -72 -20 l-60 0 0 85 0 86
88 -3 c79 -3 88 -5 97 -25 15 -35 25 -27 25 20 l0 42 -165 0 c-91 0 -165 -3
-165 -7z"/>
<path d="M7358 2377 c-32 -18 -58 -38 -58 -45 0 -8 4 -12 8 -10 4 2 38 14 75
27 49 18 67 30 67 43 0 26 -26 22 -92 -15z"/>
<path d="M2100 2268 c0 -4 9 -8 20 -8 10 0 24 -9 30 -19 11 -21 14 -378 4
-405 -3 -9 -14 -16 -24 -16 -11 0 -22 -4 -25 -10 -4 -6 27 -10 87 -9 88 1 91
1 61 15 -28 12 -32 19 -38 68 -4 31 -6 120 -4 199 4 151 12 177 50 177 11 0
19 4 19 8 0 5 -40 8 -90 8 -49 0 -90 -4 -90 -8z"/>
<path d="M2450 2269 c0 -5 9 -9 20 -9 10 0 24 -9 30 -19 11 -22 14 -390 2
-406 -4 -6 -18 -16 -32 -22 -21 -10 -11 -12 65 -12 76 0 86 2 65 12 -14 6 -28
16 -32 22 -4 5 -8 86 -8 179 l0 169 121 -179 c192 -284 189 -285 189 9 0 231
3 247 42 247 10 0 18 3 18 8 0 4 -38 7 -85 7 -47 0 -85 -3 -85 -7 0 -5 8 -8
19 -8 37 0 42 -21 39 -194 l-3 -167 -91 138 c-50 76 -103 160 -117 186 l-25
48 -66 4 c-37 2 -66 0 -66 -6z"/>
<path d="M3100 2269 c0 -4 11 -10 25 -13 14 -4 27 -16 30 -29 3 -12 4 -105 3
-207 -3 -180 -3 -185 -26 -196 -42 -21 -35 -24 57 -24 59 0 90 4 86 10 -3 6
-15 10 -25 10 -30 0 -40 32 -40 129 l0 91 51 0 c56 0 89 -13 89 -35 0 -8 5
-15 10 -15 6 0 10 27 9 63 0 59 -1 61 -16 40 -13 -20 -24 -23 -80 -23 l-64 0
3 83 3 82 70 3 c86 4 111 -2 118 -28 9 -36 27 -21 27 23 l0 42 -165 0 c-91 0
-165 -3 -165 -6z"/>
<path d="M3740 2264 c-54 -23 -108 -82 -126 -137 -20 -59 -15 -166 9 -213 26
-50 78 -94 131 -109 63 -19 90 -19 155 1 172 51 217 299 77 422 -59 52 -172
68 -246 36z m180 -45 c63 -39 91 -93 91 -178 1 -162 -125 -255 -257 -190 -129
62 -135 294 -10 370 44 27 130 26 176 -2z"/>
<path d="M4250 2268 c0 -4 8 -8 18 -8 39 0 42 -17 42 -227 l0 -203 -32 -14
c-32 -14 -29 -14 62 -15 80 0 91 2 70 12 -37 17 -40 25 -40 115 0 80 1 82 24
82 19 0 38 -18 84 -82 86 -119 102 -132 164 -133 32 0 53 5 55 13 3 7 -4 12
-19 12 -12 0 -35 8 -50 18 -26 17 -148 160 -148 173 0 4 14 12 30 19 51 21 80
65 80 119 0 57 -25 95 -73 110 -40 12 -267 20 -267 9z m265 -58 c19 -18 25
-33 25 -67 0 -57 -30 -89 -94 -98 -74 -11 -76 -9 -76 101 l0 96 60 -4 c45 -3
66 -10 85 -28z"/>
<path d="M4840 2270 c0 -4 11 -11 24 -14 14 -3 28 -15 31 -26 8 -26 -14 -335
-27 -377 -6 -22 -16 -33 -28 -33 -10 0 -22 -4 -25 -10 -4 -6 23 -10 75 -10 52
0 79 4 75 10 -3 6 -13 10 -20 10 -24 0 -27 39 -13 210 l13 165 71 -190 c56
-150 75 -191 90 -193 16 -2 30 26 94 187 87 220 84 221 96 -21 l7 -147 -29
-13 -29 -13 48 -3 c26 -2 67 -2 90 0 41 4 41 4 15 15 -14 7 -29 17 -33 23 -4
6 -13 93 -20 193 -12 159 -12 185 1 204 8 13 21 23 29 23 8 0 15 4 15 9 0 5
-29 9 -64 8 l-64 -2 -17 -55 c-26 -83 -115 -309 -124 -314 -7 -4 -83 189 -126
320 l-16 49 -69 2 c-39 1 -70 -2 -70 -7z"/>
<path d="M5785 2266 c-12 -8 -53 -98 -100 -217 -71 -180 -84 -206 -114 -226
l-34 -23 82 0 c52 0 80 4 76 10 -3 6 -13 10 -21 10 -27 0 -26 29 1 105 l28 75
82 0 82 0 27 -79 c28 -79 28 -101 1 -101 -8 0 -17 -4 -20 -10 -4 -6 27 -10 87
-9 89 1 92 1 61 15 -41 18 -43 21 -129 259 -39 109 -76 201 -81 202 -5 2 -18
-3 -28 -11z m34 -141 c17 -44 31 -83 31 -87 0 -5 -29 -8 -65 -8 -36 0 -65 4
-65 9 0 14 62 173 65 169 2 -2 18 -39 34 -83z"/>
<path d="M6337 2266 c-94 -34 -146 -116 -147 -229 0 -148 87 -239 230 -241 72
-1 154 25 164 51 9 23 3 25 -33 7 -18 -9 -58 -18 -90 -21 -145 -13 -236 98
-210 257 10 62 30 94 80 128 30 21 43 23 108 20 67 -3 75 -6 97 -33 27 -34 30
-33 39 16 7 36 7 36 -39 48 -60 15 -152 13 -199 -3z"/>
<path d="M6760 2268 c0 -4 9 -8 20 -8 10 0 24 -9 30 -19 11 -21 14 -378 4
-405 -3 -9 -14 -16 -24 -16 -11 0 -22 -4 -25 -10 -4 -6 27 -10 87 -9 88 1 91
1 61 15 -28 12 -32 19 -38 68 -4 31 -6 120 -4 199 4 151 12 177 50 177 11 0
19 4 19 8 0 5 -40 8 -90 8 -49 0 -90 -4 -90 -8z"/>
<path d="M7260 2264 c-54 -23 -108 -82 -126 -137 -20 -59 -15 -166 9 -213 26
-50 78 -94 131 -109 63 -19 90 -19 155 1 172 51 217 299 77 422 -59 52 -172
68 -246 36z m180 -45 c63 -39 91 -93 91 -178 1 -162 -125 -255 -257 -190 -129
62 -135 294 -10 370 44 27 130 26 176 -2z"/>
<path d="M7770 2269 c0 -5 9 -9 20 -9 10 0 24 -9 30 -19 11 -22 14 -390 2
-406 -4 -6 -18 -16 -32 -22 -21 -10 -11 -12 65 -12 76 0 86 2 65 12 -14 6 -28
16 -32 22 -4 5 -8 86 -8 179 l0 169 121 -179 c192 -284 189 -285 189 9 0 231
3 247 42 247 10 0 18 3 18 8 0 4 -38 7 -85 7 -47 0 -85 -3 -85 -7 0 -5 8 -8
19 -8 37 0 42 -21 39 -194 l-3 -167 -91 138 c-50 76 -103 160 -117 186 l-25
48 -66 4 c-37 2 -66 0 -66 -6z"/>
<path d="M8700 2268 c0 -4 8 -8 18 -8 39 0 42 -17 42 -227 l0 -203 -32 -14
c-32 -14 -29 -14 62 -15 56 -1 90 3 85 8 -6 5 -19 11 -30 13 -19 3 -20 12 -23
207 -3 211 1 231 39 231 11 0 19 4 19 8 0 4 -40 8 -90 8 -49 0 -90 -3 -90 -8z"/>
<path d="M9050 2269 c0 -5 8 -9 18 -9 39 0 42 -17 42 -227 l0 -203 -32 -14
c-32 -14 -30 -14 57 -15 l90 -1 -32 20 -33 20 0 172 c0 99 4 168 9 163 5 -6
63 -92 130 -192 67 -101 125 -183 130 -183 5 0 16 -3 25 -6 14 -5 16 17 16
211 0 224 5 255 40 255 11 0 20 3 20 8 0 4 -38 7 -85 8 -47 0 -85 -3 -85 -8 0
-4 8 -8 19 -8 37 0 42 -21 39 -191 l-3 -163 -64 93 c-35 51 -87 133 -116 183
l-53 89 -66 4 c-37 2 -66 0 -66 -6z"/>
<path d="M9720 2269 c0 -5 7 -9 15 -9 8 0 21 -10 29 -22 13 -20 13 -45 5 -168
-14 -204 -20 -232 -47 -246 -42 -21 -35 -24 49 -24 82 1 83 1 55 16 l-29 16 8
131 c4 73 10 154 14 180 l6 48 70 -191 c60 -164 73 -190 90 -188 15 2 35 44
95 192 l75 189 7 -54 c3 -30 10 -111 13 -181 l8 -127 -34 -15 c-33 -14 -32
-14 61 -15 56 -1 90 3 85 8 -6 5 -19 11 -29 13 -11 1 -23 15 -27 29 -11 41
-31 357 -24 379 4 11 17 23 31 26 46 12 24 23 -41 21 l-65 -2 -21 -65 c-27
-85 -109 -293 -119 -303 -8 -9 -41 71 -106 258 l-38 110 -68 1 c-37 1 -68 -2
-68 -7z"/>
<path d="M10460 2268 c0 -5 8 -8 18 -8 39 0 42 -17 42 -227 l0 -203 -32 -14
c-30 -13 -19 -14 138 -15 l172 -1 6 31 c9 44 8 69 -3 69 -5 0 -12 -11 -15 -25
-8 -30 -31 -37 -129 -39 l-72 -1 -3 103 -3 102 43 0 c60 0 86 -9 93 -31 12
-38 25 -17 25 41 0 63 -7 73 -28 40 -10 -16 -23 -20 -72 -20 l-60 0 0 85 0 86
88 -3 c79 -3 88 -5 97 -25 15 -35 25 -27 25 20 l0 42 -165 0 c-91 0 -165 -3
-165 -7z"/>
<path d="M10990 2268 c0 -5 6 -8 14 -8 8 0 22 -10 30 -22 13 -18 16 -54 15
-198 0 -96 -4 -183 -8 -194 -4 -10 -20 -24 -37 -32 -26 -12 -11 -13 127 -11
154 2 156 2 204 32 68 42 105 113 105 201 0 101 -42 174 -124 216 -36 19 -58
22 -184 22 -78 1 -142 -2 -142 -6z m269 -38 c19 -5 50 -24 68 -42 86 -83 72
-259 -25 -324 -40 -27 -149 -42 -181 -25 -20 11 -21 18 -21 206 l0 195 63 0
c34 0 78 -4 96 -10z"/>
<path d="M11630 2269 c0 -4 9 -9 20 -12 11 -3 24 -17 30 -32 12 -32 13 -365 1
-384 -5 -8 -22 -20 -38 -27 -25 -11 -18 -12 66 -13 94 -1 101 2 59 23 -23 11
-23 15 -26 204 -3 201 3 232 38 232 11 0 20 4 20 8 0 4 -38 8 -85 8 -47 0 -85
-3 -85 -7z"/>
<path d="M12175 2266 c-12 -8 -53 -98 -100 -217 -71 -180 -84 -206 -114 -226
l-34 -23 82 0 c52 0 80 4 76 10 -3 6 -13 10 -21 10 -27 0 -26 29 1 105 l28 75
82 0 82 0 27 -79 c28 -79 28 -101 1 -101 -8 0 -17 -4 -20 -10 -4 -6 27 -10 87
-9 89 1 92 1 61 15 -41 18 -43 21 -129 259 -39 109 -76 201 -81 202 -5 2 -18
-3 -28 -11z m34 -141 c17 -44 31 -83 31 -87 0 -5 -29 -8 -65 -8 -36 0 -65 4
-65 9 0 14 62 173 65 169 2 -2 18 -39 34 -83z"/>
<path d="M12554 2271 c-9 -9 -3 -81 6 -81 6 0 10 7 10 15 0 22 33 35 93 35
l54 0 7 -46 c8 -58 6 -299 -3 -338 -5 -23 -14 -32 -38 -38 -18 -5 -33 -11 -33
-13 0 -3 46 -5 103 -5 l102 1 -35 17 -35 17 -3 203 -2 202 55 0 c61 0 95 -13
95 -35 0 -8 5 -15 10 -15 6 0 10 19 10 43 l0 42 -196 0 c-108 0 -198 -2 -200
-4z"/>
<path d="M13307 2268 c-9 -7 -53 -103 -98 -213 -44 -110 -83 -206 -86 -213 -3
-7 -20 -19 -37 -27 -30 -13 -27 -13 52 -14 53 -1 81 3 77 9 -3 6 -12 10 -20
10 -27 0 -27 22 1 101 l27 79 83 0 82 0 26 -71 c32 -87 32 -97 1 -109 -14 -5
-25 -12 -25 -15 0 -3 42 -5 93 -4 89 1 91 1 59 15 -39 17 -35 9 -125 259 -40
109 -77 200 -82 202 -6 2 -18 -2 -28 -9z m36 -146 c15 -40 27 -77 27 -83 0 -5
-30 -9 -66 -9 -49 0 -65 3 -62 13 48 134 62 167 68 160 4 -4 19 -41 33 -81z"/>
</g>
</svg>
